<mxfile host="65bd71144e" pages="2">
    <diagram name="components" id="24d83GfI1hR9U39I3qJO">
        <mxGraphModel dx="1307" dy="779" grid="1" gridSize="10" guides="1" tooltips="1" connect="1" arrows="1" fold="1" page="1" pageScale="1" pageWidth="850" pageHeight="1100" math="0" shadow="0">
            <root>
                <mxCell id="0"/>
                <mxCell id="1" parent="0"/>
                <mxCell id="EOUBI71fxi7JelohyqIn-4" style="edgeStyle=orthogonalEdgeStyle;rounded=0;orthogonalLoop=1;jettySize=auto;html=1;entryX=0.5;entryY=0;entryDx=0;entryDy=0;entryPerimeter=0;exitX=0.5;exitY=1;exitDx=0;exitDy=0;" parent="1" source="EOUBI71fxi7JelohyqIn-2" target="EOUBI71fxi7JelohyqIn-3" edge="1">
                    <mxGeometry relative="1" as="geometry"/>
                </mxCell>
                <mxCell id="MKwpkV_GQ-pZMWxmjJW_-30" value="CRUD" style="edgeLabel;html=1;align=center;verticalAlign=middle;resizable=0;points=[];fontSize=13;" parent="EOUBI71fxi7JelohyqIn-4" vertex="1" connectable="0">
                    <mxGeometry x="-0.1919" y="-2" relative="1" as="geometry">
                        <mxPoint x="2" y="-2" as="offset"/>
                    </mxGeometry>
                </mxCell>
                <mxCell id="MKwpkV_GQ-pZMWxmjJW_-1" style="edgeStyle=orthogonalEdgeStyle;rounded=0;orthogonalLoop=1;jettySize=auto;html=1;exitX=0.5;exitY=1;exitDx=0;exitDy=0;" parent="1" source="MKwpkV_GQ-pZMWxmjJW_-21" edge="1">
                    <mxGeometry relative="1" as="geometry">
                        <mxPoint x="185" y="710" as="targetPoint"/>
                    </mxGeometry>
                </mxCell>
                <mxCell id="MKwpkV_GQ-pZMWxmjJW_-2" value="pub to &lt;br style=&quot;font-size: 13px;&quot;&gt;clients&lt;br&gt;&amp;nbsp;topic" style="edgeLabel;html=1;align=center;verticalAlign=middle;resizable=0;points=[];fontSize=13;" parent="MKwpkV_GQ-pZMWxmjJW_-1" vertex="1" connectable="0">
                    <mxGeometry x="-0.0373" y="-3" relative="1" as="geometry">
                        <mxPoint x="-27" y="-8" as="offset"/>
                    </mxGeometry>
                </mxCell>
                <mxCell id="EOUBI71fxi7JelohyqIn-2" value="&lt;font style=&quot;font-size: 14px;&quot;&gt;clients&lt;br&gt;&amp;nbsp;API&lt;br&gt;&lt;/font&gt;" style="whiteSpace=wrap;html=1;aspect=fixed;" parent="1" vertex="1">
                    <mxGeometry x="140" y="260" width="90" height="90" as="geometry"/>
                </mxCell>
                <mxCell id="EOUBI71fxi7JelohyqIn-3" value="clients &lt;br&gt;DB" style="shape=cylinder3;whiteSpace=wrap;html=1;boundedLbl=1;backgroundOutline=1;size=10;" parent="1" vertex="1">
                    <mxGeometry x="155" y="404" width="60" height="70" as="geometry"/>
                </mxCell>
                <mxCell id="EOUBI71fxi7JelohyqIn-5" value="" style="shape=cylinder3;whiteSpace=wrap;html=1;boundedLbl=1;backgroundOutline=1;size=15;rotation=90;" parent="1" vertex="1">
                    <mxGeometry x="370" y="415" width="60" height="660" as="geometry"/>
                </mxCell>
                <mxCell id="EOUBI71fxi7JelohyqIn-6" value="kafka cluster" style="text;html=1;align=center;verticalAlign=middle;resizable=0;points=[];autosize=1;strokeColor=none;fillColor=none;fontSize=15;" parent="1" vertex="1">
                    <mxGeometry x="300" y="730" width="110" height="30" as="geometry"/>
                </mxCell>
                <mxCell id="EOUBI71fxi7JelohyqIn-11" style="edgeStyle=orthogonalEdgeStyle;rounded=0;orthogonalLoop=1;jettySize=auto;html=1;exitX=0.5;exitY=1;exitDx=0;exitDy=0;" parent="1" source="MKwpkV_GQ-pZMWxmjJW_-24" edge="1">
                    <mxGeometry relative="1" as="geometry">
                        <mxPoint x="335" y="710" as="targetPoint"/>
                    </mxGeometry>
                </mxCell>
                <mxCell id="EOUBI71fxi7JelohyqIn-12" value="pub to&lt;br style=&quot;font-size: 13px;&quot;&gt;products&lt;br&gt;&amp;nbsp;topic" style="edgeLabel;html=1;align=center;verticalAlign=middle;resizable=0;points=[];fontSize=13;" parent="EOUBI71fxi7JelohyqIn-11" vertex="1" connectable="0">
                    <mxGeometry x="-0.125" y="2" relative="1" as="geometry">
                        <mxPoint x="-37" y="-4" as="offset"/>
                    </mxGeometry>
                </mxCell>
                <mxCell id="MKwpkV_GQ-pZMWxmjJW_-7" style="edgeStyle=orthogonalEdgeStyle;rounded=0;orthogonalLoop=1;jettySize=auto;html=1;entryX=0.5;entryY=0;entryDx=0;entryDy=0;entryPerimeter=0;exitX=0.5;exitY=1;exitDx=0;exitDy=0;" parent="1" source="2" target="MKwpkV_GQ-pZMWxmjJW_-6" edge="1">
                    <mxGeometry relative="1" as="geometry">
                        <mxPoint x="390" y="360" as="sourcePoint"/>
                    </mxGeometry>
                </mxCell>
                <mxCell id="MKwpkV_GQ-pZMWxmjJW_-31" value="CRUD" style="edgeLabel;html=1;align=center;verticalAlign=middle;resizable=0;points=[];fontSize=12;" parent="MKwpkV_GQ-pZMWxmjJW_-7" vertex="1" connectable="0">
                    <mxGeometry x="0.3455" y="2" relative="1" as="geometry">
                        <mxPoint x="-2" y="-19" as="offset"/>
                    </mxGeometry>
                </mxCell>
                <mxCell id="MKwpkV_GQ-pZMWxmjJW_-3" value="read" style="rounded=0;orthogonalLoop=1;jettySize=auto;html=1;exitX=0.5;exitY=1;exitDx=0;exitDy=0;" parent="1" source="MKwpkV_GQ-pZMWxmjJW_-26" edge="1">
                    <mxGeometry relative="1" as="geometry">
                        <mxPoint x="650" y="650" as="sourcePoint"/>
                        <mxPoint x="662" y="710" as="targetPoint"/>
                    </mxGeometry>
                </mxCell>
                <mxCell id="3" style="edgeStyle=none;html=1;exitX=0.111;exitY=1;exitDx=0;exitDy=0;exitPerimeter=0;" parent="1" source="EOUBI71fxi7JelohyqIn-13" edge="1">
                    <mxGeometry relative="1" as="geometry">
                        <mxPoint x="492.5" y="290" as="sourcePoint"/>
                        <mxPoint x="480" y="710" as="targetPoint"/>
                    </mxGeometry>
                </mxCell>
                <mxCell id="5" value="read &lt;br&gt;client &amp;amp; &lt;br&gt;product&lt;br&gt;data&lt;br&gt;via streams api" style="edgeLabel;html=1;align=center;verticalAlign=middle;resizable=0;points=[];" parent="3" vertex="1" connectable="0">
                    <mxGeometry x="0.2611" y="2" relative="1" as="geometry">
                        <mxPoint x="-2" y="-87" as="offset"/>
                    </mxGeometry>
                </mxCell>
                <mxCell id="4" style="edgeStyle=none;html=1;exitX=0.878;exitY=1.022;exitDx=0;exitDy=0;exitPerimeter=0;" parent="1" source="EOUBI71fxi7JelohyqIn-13" edge="1">
                    <mxGeometry relative="1" as="geometry">
                        <mxPoint x="550" y="710" as="targetPoint"/>
                    </mxGeometry>
                </mxCell>
                <mxCell id="6" value="write &lt;br&gt;orders" style="edgeLabel;html=1;align=center;verticalAlign=middle;resizable=0;points=[];" parent="4" vertex="1" connectable="0">
                    <mxGeometry x="-0.1898" y="4" relative="1" as="geometry">
                        <mxPoint as="offset"/>
                    </mxGeometry>
                </mxCell>
                <mxCell id="EOUBI71fxi7JelohyqIn-13" value="&lt;font style=&quot;font-size: 14px;&quot;&gt;orders&lt;br&gt;&amp;nbsp;API&lt;/font&gt;" style="whiteSpace=wrap;html=1;aspect=fixed;" parent="1" vertex="1">
                    <mxGeometry x="470" y="260" width="90" height="90" as="geometry"/>
                </mxCell>
                <mxCell id="MKwpkV_GQ-pZMWxmjJW_-6" value="products&lt;br&gt;DB" style="shape=cylinder3;whiteSpace=wrap;html=1;boundedLbl=1;backgroundOutline=1;size=13;" parent="1" vertex="1">
                    <mxGeometry x="305" y="407.5" width="60" height="70" as="geometry"/>
                </mxCell>
                <mxCell id="MKwpkV_GQ-pZMWxmjJW_-8" value="orders DB&lt;br&gt;" style="shape=cylinder3;whiteSpace=wrap;html=1;boundedLbl=1;backgroundOutline=1;size=15;" parent="1" vertex="1">
                    <mxGeometry x="620.5" y="407.5" width="83" height="80" as="geometry"/>
                </mxCell>
                <mxCell id="MKwpkV_GQ-pZMWxmjJW_-22" style="edgeStyle=orthogonalEdgeStyle;rounded=0;orthogonalLoop=1;jettySize=auto;html=1;entryX=0.5;entryY=1;entryDx=0;entryDy=0;entryPerimeter=0;" parent="1" source="MKwpkV_GQ-pZMWxmjJW_-21" target="EOUBI71fxi7JelohyqIn-3" edge="1">
                    <mxGeometry relative="1" as="geometry"/>
                </mxCell>
                <mxCell id="MKwpkV_GQ-pZMWxmjJW_-23" value="read" style="edgeLabel;html=1;align=center;verticalAlign=middle;resizable=0;points=[];fontSize=13;" parent="MKwpkV_GQ-pZMWxmjJW_-22" vertex="1" connectable="0">
                    <mxGeometry x="-0.0889" relative="1" as="geometry">
                        <mxPoint x="-25" y="-9" as="offset"/>
                    </mxGeometry>
                </mxCell>
                <mxCell id="MKwpkV_GQ-pZMWxmjJW_-21" value="&lt;br&gt;source connector" style="whiteSpace=wrap;html=1;aspect=fixed;" parent="1" vertex="1">
                    <mxGeometry x="145" y="540" width="80" height="80" as="geometry"/>
                </mxCell>
                <mxCell id="MKwpkV_GQ-pZMWxmjJW_-25" style="edgeStyle=orthogonalEdgeStyle;rounded=0;orthogonalLoop=1;jettySize=auto;html=1;entryX=0.5;entryY=1;entryDx=0;entryDy=0;entryPerimeter=0;" parent="1" source="MKwpkV_GQ-pZMWxmjJW_-24" target="MKwpkV_GQ-pZMWxmjJW_-6" edge="1">
                    <mxGeometry relative="1" as="geometry"/>
                </mxCell>
                <mxCell id="MKwpkV_GQ-pZMWxmjJW_-28" value="read" style="edgeLabel;html=1;align=center;verticalAlign=middle;resizable=0;points=[];fontSize=12;" parent="MKwpkV_GQ-pZMWxmjJW_-25" vertex="1" connectable="0">
                    <mxGeometry x="0.0562" y="-2" relative="1" as="geometry">
                        <mxPoint x="-22" y="-2" as="offset"/>
                    </mxGeometry>
                </mxCell>
                <mxCell id="MKwpkV_GQ-pZMWxmjJW_-24" value="&lt;br&gt;source&amp;nbsp; connector" style="whiteSpace=wrap;html=1;aspect=fixed;" parent="1" vertex="1">
                    <mxGeometry x="295" y="541" width="80" height="80" as="geometry"/>
                </mxCell>
                <mxCell id="MKwpkV_GQ-pZMWxmjJW_-27" style="edgeStyle=orthogonalEdgeStyle;rounded=0;orthogonalLoop=1;jettySize=auto;html=1;entryX=0.5;entryY=1;entryDx=0;entryDy=0;entryPerimeter=0;" parent="1" source="MKwpkV_GQ-pZMWxmjJW_-26" target="MKwpkV_GQ-pZMWxmjJW_-8" edge="1">
                    <mxGeometry relative="1" as="geometry">
                        <mxPoint x="580" y="530" as="targetPoint"/>
                    </mxGeometry>
                </mxCell>
                <mxCell id="MKwpkV_GQ-pZMWxmjJW_-29" value="write" style="edgeLabel;html=1;align=center;verticalAlign=middle;resizable=0;points=[];fontSize=12;" parent="MKwpkV_GQ-pZMWxmjJW_-27" vertex="1" connectable="0">
                    <mxGeometry x="-0.08" y="1" relative="1" as="geometry">
                        <mxPoint x="-21" y="-7" as="offset"/>
                    </mxGeometry>
                </mxCell>
                <mxCell id="MKwpkV_GQ-pZMWxmjJW_-26" value="sink &lt;br&gt;connector" style="whiteSpace=wrap;html=1;aspect=fixed;" parent="1" vertex="1">
                    <mxGeometry x="622" y="541" width="80" height="80" as="geometry"/>
                </mxCell>
                <mxCell id="2" value="&lt;font style=&quot;font-size: 14px;&quot;&gt;products&lt;br&gt;&amp;nbsp;API&lt;br&gt;&lt;/font&gt;" style="whiteSpace=wrap;html=1;aspect=fixed;" parent="1" vertex="1">
                    <mxGeometry x="290" y="260" width="90" height="90" as="geometry"/>
                </mxCell>
            </root>
        </mxGraphModel>
    </diagram>
    <diagram id="eUFlmv0SnMTcijY9VlKP" name="use-cases">
        <mxGraphModel dx="1434" dy="843" grid="1" gridSize="10" guides="1" tooltips="1" connect="1" arrows="1" fold="1" page="1" pageScale="1" pageWidth="850" pageHeight="1100" math="0" shadow="0">
            <root>
                <mxCell id="0"/>
                <mxCell id="1" parent="0"/>
                <mxCell id="PqMdVz7_FKGQnliCOnVf-10" style="rounded=0;orthogonalLoop=1;jettySize=auto;html=1;entryX=0;entryY=0.5;entryDx=0;entryDy=0;" edge="1" parent="1" target="PqMdVz7_FKGQnliCOnVf-2">
                    <mxGeometry relative="1" as="geometry">
                        <mxPoint x="70" y="290" as="sourcePoint"/>
                    </mxGeometry>
                </mxCell>
                <mxCell id="PqMdVz7_FKGQnliCOnVf-22" style="rounded=0;orthogonalLoop=1;jettySize=auto;html=1;entryX=0;entryY=0.5;entryDx=0;entryDy=0;" edge="1" parent="1" target="PqMdVz7_FKGQnliCOnVf-20">
                    <mxGeometry relative="1" as="geometry">
                        <mxPoint x="70" y="330" as="sourcePoint"/>
                    </mxGeometry>
                </mxCell>
                <mxCell id="PqMdVz7_FKGQnliCOnVf-1" value="client" style="shape=umlActor;verticalLabelPosition=bottom;verticalAlign=top;html=1;outlineConnect=0;" vertex="1" parent="1">
                    <mxGeometry x="30" y="280" width="30" height="60" as="geometry"/>
                </mxCell>
                <mxCell id="PqMdVz7_FKGQnliCOnVf-4" style="edgeStyle=orthogonalEdgeStyle;rounded=0;orthogonalLoop=1;jettySize=auto;html=1;entryX=0;entryY=0.5;entryDx=0;entryDy=0;" edge="1" parent="1" source="PqMdVz7_FKGQnliCOnVf-2" target="PqMdVz7_FKGQnliCOnVf-3">
                    <mxGeometry relative="1" as="geometry"/>
                </mxCell>
                <mxCell id="PqMdVz7_FKGQnliCOnVf-2" value="browse product catalog&lt;br&gt;" style="ellipse;whiteSpace=wrap;html=1;" vertex="1" parent="1">
                    <mxGeometry x="230" y="120" width="120" height="80" as="geometry"/>
                </mxCell>
                <mxCell id="PqMdVz7_FKGQnliCOnVf-6" style="rounded=0;orthogonalLoop=1;jettySize=auto;html=1;exitX=1;exitY=0.5;exitDx=0;exitDy=0;entryX=0.058;entryY=0.175;entryDx=0;entryDy=0;entryPerimeter=0;" edge="1" parent="1" source="PqMdVz7_FKGQnliCOnVf-3" target="PqMdVz7_FKGQnliCOnVf-5">
                    <mxGeometry relative="1" as="geometry"/>
                </mxCell>
                <mxCell id="PqMdVz7_FKGQnliCOnVf-8" style="edgeStyle=orthogonalEdgeStyle;rounded=0;orthogonalLoop=1;jettySize=auto;html=1;entryX=0.5;entryY=0;entryDx=0;entryDy=0;" edge="1" parent="1" source="PqMdVz7_FKGQnliCOnVf-3" target="PqMdVz7_FKGQnliCOnVf-7">
                    <mxGeometry relative="1" as="geometry"/>
                </mxCell>
                <mxCell id="PqMdVz7_FKGQnliCOnVf-3" value="add product to&lt;br&gt;&amp;nbsp;basket&lt;br&gt;" style="ellipse;whiteSpace=wrap;html=1;" vertex="1" parent="1">
                    <mxGeometry x="425" y="120" width="120" height="80" as="geometry"/>
                </mxCell>
                <mxCell id="PqMdVz7_FKGQnliCOnVf-5" value="purchase&lt;br&gt;goods in basket" style="ellipse;whiteSpace=wrap;html=1;" vertex="1" parent="1">
                    <mxGeometry x="670" y="170" width="120" height="80" as="geometry"/>
                </mxCell>
                <mxCell id="PqMdVz7_FKGQnliCOnVf-9" style="rounded=0;orthogonalLoop=1;jettySize=auto;html=1;exitX=1;exitY=0.5;exitDx=0;exitDy=0;entryX=0.083;entryY=0.875;entryDx=0;entryDy=0;entryPerimeter=0;" edge="1" parent="1" source="PqMdVz7_FKGQnliCOnVf-7" target="PqMdVz7_FKGQnliCOnVf-5">
                    <mxGeometry relative="1" as="geometry">
                        <mxPoint x="650" y="250" as="targetPoint"/>
                    </mxGeometry>
                </mxCell>
                <mxCell id="PqMdVz7_FKGQnliCOnVf-7" value="&lt;br&gt;save basket&lt;br&gt;&amp;nbsp;to later&lt;br&gt;" style="ellipse;whiteSpace=wrap;html=1;" vertex="1" parent="1">
                    <mxGeometry x="425" y="260" width="120" height="80" as="geometry"/>
                </mxCell>
                <mxCell id="PqMdVz7_FKGQnliCOnVf-15" style="edgeStyle=orthogonalEdgeStyle;rounded=0;orthogonalLoop=1;jettySize=auto;html=1;entryX=0;entryY=0.5;entryDx=0;entryDy=0;" edge="1" parent="1" source="PqMdVz7_FKGQnliCOnVf-13" target="PqMdVz7_FKGQnliCOnVf-14">
                    <mxGeometry relative="1" as="geometry"/>
                </mxCell>
                <mxCell id="PqMdVz7_FKGQnliCOnVf-13" value="admin" style="shape=umlActor;verticalLabelPosition=bottom;verticalAlign=top;html=1;outlineConnect=0;" vertex="1" parent="1">
                    <mxGeometry x="50" y="520" width="30" height="60" as="geometry"/>
                </mxCell>
                <mxCell id="PqMdVz7_FKGQnliCOnVf-14" value="create/update a&amp;nbsp;&lt;br&gt;product" style="ellipse;whiteSpace=wrap;html=1;" vertex="1" parent="1">
                    <mxGeometry x="230" y="510" width="120" height="80" as="geometry"/>
                </mxCell>
                <mxCell id="PqMdVz7_FKGQnliCOnVf-20" value="sign up (register)" style="ellipse;whiteSpace=wrap;html=1;" vertex="1" parent="1">
                    <mxGeometry x="240" y="360" width="120" height="80" as="geometry"/>
                </mxCell>
            </root>
        </mxGraphModel>
    </diagram>
</mxfile>